<svg width="195" height="34" viewBox="0 0 195 34" fill="none" xmlns="http://www.w3.org/2000/svg">
<path d="M184.979 26.324C182.819 26.324 180.887 25.892 179.183 25.028C177.503 24.164 176.183 22.976 175.223 21.464C174.263 19.928 173.783 18.176 173.783 16.208C173.783 14.24 174.263 12.5 175.223 10.988C176.183 9.47599 177.503 8.29999 179.183 7.45999C180.887 6.59599 182.819 6.16399 184.979 6.16399C187.187 6.16399 189.095 6.63199 190.703 7.56799C192.311 8.50399 193.451 9.82399 194.123 11.528L188.831 14.228C188.375 13.316 187.811 12.656 187.139 12.248C186.467 11.816 185.735 11.6 184.943 11.6C184.151 11.6 183.431 11.78 182.783 12.14C182.135 12.5 181.619 13.028 181.235 13.724C180.875 14.396 180.695 15.224 180.695 16.208C180.695 17.216 180.875 18.068 181.235 18.764C181.619 19.46 182.135 19.988 182.783 20.348C183.431 20.708 184.151 20.888 184.943 20.888C185.735 20.888 186.467 20.684 187.139 20.276C187.811 19.844 188.375 19.172 188.831 18.26L194.123 20.96C193.451 22.664 192.311 23.984 190.703 24.92C189.095 25.856 187.187 26.324 184.979 26.324Z" fill="black"/>
<path d="M160.602 6.16399C162.114 6.16399 163.482 6.47599 164.706 7.09999C165.93 7.69999 166.89 8.63599 167.586 9.90799C168.306 11.18 168.666 12.824 168.666 14.84V26H161.826V15.956C161.826 14.564 161.538 13.556 160.962 12.932C160.41 12.284 159.63 11.96 158.622 11.96C157.902 11.96 157.242 12.128 156.642 12.464C156.042 12.776 155.574 13.268 155.238 13.94C154.902 14.612 154.734 15.488 154.734 16.568V26H147.894V6.48799H154.41V12.032L153.15 10.412C153.894 8.99599 154.914 7.93999 156.21 7.24399C157.506 6.52399 158.97 6.16399 160.602 6.16399Z" fill="black"/>
<path d="M127.118 33.308C126.086 33.308 125.042 33.14 123.986 32.804C122.954 32.492 122.114 32.072 121.466 31.544L123.842 26.756C124.25 27.116 124.718 27.392 125.246 27.584C125.798 27.8 126.338 27.908 126.866 27.908C127.61 27.908 128.198 27.74 128.63 27.404C129.062 27.068 129.434 26.54 129.746 25.82L130.646 23.552L131.186 22.868L137.81 6.48799H144.326L135.902 26.792C135.23 28.472 134.45 29.78 133.562 30.716C132.698 31.676 131.726 32.348 130.646 32.732C129.59 33.116 128.414 33.308 127.118 33.308ZM129.782 26.828L121.178 6.48799H128.198L134.534 22.256L129.782 26.828Z" fill="black"/>
<path d="M108.193 26.504C106.129 26.504 104.137 26.252 102.217 25.748C100.321 25.22 98.7732 24.548 97.5732 23.732L99.9132 18.476C101.041 19.196 102.337 19.796 103.801 20.276C105.289 20.732 106.765 20.96 108.229 20.96C109.213 20.96 110.005 20.876 110.605 20.708C111.205 20.516 111.637 20.276 111.901 19.988C112.189 19.676 112.333 19.316 112.333 18.908C112.333 18.332 112.069 17.876 111.541 17.54C111.013 17.204 110.329 16.928 109.489 16.712C108.649 16.496 107.713 16.28 106.681 16.064C105.673 15.848 104.653 15.572 103.621 15.236C102.613 14.9 101.689 14.468 100.849 13.94C100.009 13.388 99.3252 12.68 98.7972 11.816C98.2692 10.928 98.0052 9.81199 98.0052 8.46799C98.0052 6.95599 98.4132 5.58799 99.2292 4.36399C100.069 3.13999 101.317 2.15599 102.973 1.41199C104.629 0.66799 106.693 0.29599 109.165 0.29599C110.821 0.29599 112.441 0.48799 114.025 0.871991C115.633 1.23199 117.061 1.77199 118.309 2.49199L116.113 7.78399C114.913 7.13599 113.725 6.65599 112.549 6.34399C111.373 6.00799 110.233 5.83999 109.129 5.83999C108.145 5.83999 107.353 5.94799 106.753 6.16399C106.153 6.35599 105.721 6.61999 105.457 6.95599C105.193 7.29199 105.061 7.67599 105.061 8.10799C105.061 8.65999 105.313 9.10399 105.817 9.43999C106.345 9.75199 107.029 10.016 107.869 10.232C108.733 10.424 109.669 10.628 110.677 10.844C111.709 11.06 112.729 11.336 113.737 11.672C114.769 11.984 115.705 12.416 116.545 12.968C117.385 13.496 118.057 14.204 118.561 15.092C119.089 15.956 119.353 17.048 119.353 18.368C119.353 19.832 118.933 21.188 118.093 22.436C117.277 23.66 116.041 24.644 114.385 25.388C112.753 26.132 110.689 26.504 108.193 26.504Z" fill="black"/>
<path d="M84.3395 26.324C82.0355 26.324 80.0195 25.892 78.2915 25.028C76.5875 24.14 75.2555 22.94 74.2955 21.428C73.3595 19.892 72.8915 18.152 72.8915 16.208C72.8915 14.264 73.3475 12.536 74.2595 11.024C75.1955 9.48799 76.4795 8.29999 78.1115 7.45999C79.7435 6.59599 81.5795 6.16399 83.6195 6.16399C85.5395 6.16399 87.2915 6.55999 88.8755 7.35199C90.4595 8.11999 91.7195 9.25999 92.6555 10.772C93.5915 12.284 94.0595 14.12 94.0595 16.28C94.0595 16.52 94.0475 16.796 94.0235 17.108C93.9995 17.42 93.9755 17.708 93.9515 17.972H78.5075V14.372H90.3155L87.7235 15.38C87.7475 14.492 87.5795 13.724 87.2195 13.076C86.8835 12.428 86.4035 11.924 85.7795 11.564C85.1795 11.204 84.4715 11.024 83.6555 11.024C82.8395 11.024 82.1195 11.204 81.4955 11.564C80.8955 11.924 80.4275 12.44 80.0915 13.112C79.7555 13.76 79.5875 14.528 79.5875 15.416V16.46C79.5875 17.42 79.7795 18.248 80.1635 18.944C80.5715 19.64 81.1475 20.18 81.8915 20.564C82.6355 20.924 83.5235 21.104 84.5555 21.104C85.5155 21.104 86.3315 20.972 87.0035 20.708C87.6995 20.42 88.3835 19.988 89.0555 19.412L92.6555 23.156C91.7195 24.188 90.5675 24.98 89.1995 25.532C87.8315 26.06 86.2115 26.324 84.3395 26.324Z" fill="black"/>
<path d="M65.4885 26.324C62.9925 26.324 61.0485 25.712 59.6565 24.488C58.2645 23.24 57.5685 21.368 57.5685 18.872V2.13199H64.4085V18.8C64.4085 19.496 64.6005 20.048 64.9845 20.456C65.3685 20.84 65.8605 21.032 66.4605 21.032C67.2765 21.032 67.9725 20.828 68.5485 20.42L70.2405 25.208C69.6645 25.592 68.9565 25.868 68.1165 26.036C67.2765 26.228 66.4005 26.324 65.4885 26.324ZM54.7245 12.32V7.20799L64.4085 7.28828V12.32H54.7245Z" fill="black"/>
<path d="M40.7919 26.324C38.6559 26.324 36.7599 25.892 35.1039 25.028C33.4479 24.164 32.1399 22.976 31.1799 21.464C30.2439 19.928 29.7759 18.176 29.7759 16.208C29.7759 14.24 30.2439 12.5 31.1799 10.988C32.1399 9.47599 33.4479 8.29999 35.1039 7.45999C36.7599 6.59599 38.6559 6.16399 40.7919 6.16399C42.9279 6.16399 44.8239 6.59599 46.4799 7.45999C48.1599 8.29999 49.4679 9.47599 50.4039 10.988C51.3399 12.5 51.8079 14.24 51.8079 16.208C51.8079 18.176 51.3399 19.928 50.4039 21.464C49.4679 22.976 48.1599 24.164 46.4799 25.028C44.8239 25.892 42.9279 26.324 40.7919 26.324ZM40.7919 20.888C41.5839 20.888 42.2799 20.708 42.8799 20.348C43.5039 19.988 43.9959 19.46 44.3559 18.764C44.7159 18.044 44.8959 17.192 44.8959 16.208C44.8959 15.224 44.7159 14.396 44.3559 13.724C43.9959 13.028 43.5039 12.5 42.8799 12.14C42.2799 11.78 41.5839 11.6 40.7919 11.6C40.0239 11.6 39.3279 11.78 38.7039 12.14C38.1039 12.5 37.6119 13.028 37.2279 13.724C36.8679 14.396 36.6879 15.224 36.6879 16.208C36.6879 17.192 36.8679 18.044 37.2279 18.764C37.6119 19.46 38.1039 19.988 38.7039 20.348C39.3279 20.708 40.0239 20.888 40.7919 20.888Z" fill="black"/>
<path d="M0.519997 26V0.799988H6.388L20.284 17.576H17.512V0.799988H24.496V26H18.628L4.732 9.22399H7.504V26H0.519997Z" fill="black"/>
<circle cx="68.5" cy="9.5" r="3.5" fill="#95143D"/>
</svg>
